<svg xmlns="http://www.w3.org/2000/svg" viewBox="0 0 520 280" font-family="'Courier New', monospace" font-size="11">
  <defs>
    <linearGradient id="bg2" x1="0" y1="0" x2="0" y2="1">
      <stop offset="0%" stop-color="#1a1a2e"/>
      <stop offset="100%" stop-color="#0a0a0f"/>
    </linearGradient>
    <marker id="arrow" markerWidth="8" markerHeight="6" refX="8" refY="3" orient="auto">
      <polygon points="0 0, 8 3, 0 6" fill="#00ff88" opacity="0.6"/>
    </marker>
  </defs>

  <rect width="520" height="280" rx="8" fill="url(#bg2)"/>

  <!-- Step boxes -->
  <rect x="20" y="20" width="160" height="40" rx="4" fill="#0f0f18" stroke="#00ff88" stroke-width="1"/>
  <text x="100" y="44" fill="#00ff88" font-size="10" text-anchor="middle">Session Outcomes</text>

  <line x1="180" y1="40" x2="210" y2="40" stroke="#00ff88" opacity="0.6" marker-end="url(#arrow)"/>

  <rect x="216" y="20" width="160" height="40" rx="4" fill="#0f0f18" stroke="#22d3ee" stroke-width="1"/>
  <text x="296" y="44" fill="#22d3ee" font-size="10" text-anchor="middle">Outcome Signals</text>

  <line x1="296" y1="60" x2="296" y2="80" stroke="#22d3ee" opacity="0.6" marker-end="url(#arrow)"/>

  <rect x="216" y="86" width="160" height="40" rx="4" fill="#0f0f18" stroke="#a78bfa" stroke-width="1"/>
  <text x="296" y="110" fill="#a78bfa" font-size="10" text-anchor="middle">Shapley Attribution</text>

  <line x1="296" y1="126" x2="296" y2="146" stroke="#a78bfa" opacity="0.6" marker-end="url(#arrow)"/>

  <rect x="216" y="152" width="160" height="40" rx="4" fill="#0f0f18" stroke="#f472b6" stroke-width="1"/>
  <text x="296" y="176" fill="#f472b6" font-size="10" text-anchor="middle">Replicator Dynamics</text>

  <line x1="376" y1="172" x2="406" y2="172" stroke="#f472b6" opacity="0.6" marker-end="url(#arrow)"/>

  <rect x="412" y="152" width="90" height="40" rx="4" fill="#0f0f18" stroke="#fbbf24" stroke-width="1"/>
  <text x="457" y="168" fill="#fbbf24" font-size="9" text-anchor="middle">Möbius</text>
  <text x="457" y="182" fill="#fbbf24" font-size="9" text-anchor="middle">Correction</text>

  <line x1="457" y1="192" x2="457" y2="212" stroke="#fbbf24" opacity="0.6" marker-end="url(#arrow)"/>

  <rect x="340" y="218" width="200" height="40" rx="4" fill="#0f0f18" stroke="#34d399" stroke-width="1"/>
  <text x="440" y="242" fill="#34d399" font-size="10" text-anchor="middle">Updated Behavioral Profile</text>

  <line x1="340" y1="238" x2="310" y2="238" stroke="#34d399" opacity="0.6" marker-end="url(#arrow)"/>

  <rect x="100" y="218" width="204" height="40" rx="4" fill="#0f0f18" stroke="#00ff88" stroke-width="1"/>
  <text x="202" y="242" fill="#00ff88" font-size="10" text-anchor="middle">Strategy Guidance → Next Session</text>

  <!-- Curved return arrow -->
  <path d="M 100 238 Q 40 238 40 130 Q 40 40 100 40" fill="none" stroke="#00ff8844" stroke-width="1" stroke-dasharray="4 3"/>
  <text x="24" y="140" fill="#00ff8844" font-size="9" writing-mode="tb">carries forward</text>
</svg>
